<svg width="73" height="91" viewBox="0 0 73 91" fill="none" xmlns="http://www.w3.org/2000/svg">
<g opacity="0.3" filter="url(#filter0_f_7_1726)">
<path d="M9.57156 83.6256C9.87191 84.0741 10.5085 84.2035 10.9935 83.9146L18.8968 79.2066C19.3817 78.9177 19.5314 78.3199 19.2311 77.8714C18.9307 77.4229 18.2941 77.2935 17.8091 77.5825L10.784 81.7673L6.43331 75.2707C6.13296 74.8222 5.49632 74.6928 5.01134 74.9817C4.52636 75.2706 4.37669 75.8684 4.67704 76.3169L9.57156 83.6256ZM29.1024 40.9764L29.9107 41.5642L29.1024 40.9764ZM67.2656 14.3311C66.7978 13.4778 66.7975 13.4779 66.7972 13.478C66.797 13.4781 66.7966 13.4784 66.7961 13.4786C66.7951 13.4791 66.7937 13.4797 66.7919 13.4806C66.7884 13.4824 66.7832 13.4849 66.7764 13.4883C66.7628 13.495 66.7428 13.5049 66.7165 13.5179C66.664 13.544 66.5865 13.5826 66.4853 13.6334C66.2828 13.7349 65.9855 13.885 65.6036 14.0805C64.8401 14.4714 63.7385 15.0441 62.3821 15.7729C59.6699 17.2302 55.9359 19.3137 51.8473 21.8191C43.7003 26.8116 34.033 33.5466 28.294 40.3886L29.9107 41.5642C35.4214 34.9944 44.8357 28.4067 52.9579 23.4294C57.0039 20.95 60.7014 18.8869 63.3871 17.4438C64.7297 16.7224 65.8185 16.1564 66.5708 15.7713C66.9469 15.5787 67.2387 15.4314 67.436 15.3325C67.5346 15.2831 67.6096 15.2457 67.6596 15.2209C67.6846 15.2085 67.7034 15.1992 67.7158 15.1931C67.7219 15.19 67.7265 15.1878 67.7295 15.1863C67.731 15.1856 67.732 15.1851 67.7327 15.1847C67.733 15.1846 67.7332 15.1845 67.7334 15.1844C67.7335 15.1843 67.7335 15.1843 67.2656 14.3311ZM28.294 40.3886C22.3994 47.4163 17.6902 58.0843 14.4664 66.9074C12.8485 71.3353 11.594 75.3292 10.7439 78.2164C10.3187 79.6604 9.99438 80.8284 9.77609 81.6365C9.66694 82.0406 9.58428 82.3548 9.52876 82.5686C9.50099 82.6754 9.48001 82.7572 9.4659 82.8126C9.45884 82.8403 9.45349 82.8614 9.44987 82.8757C9.44806 82.8829 9.44669 82.8883 9.44574 82.8921C9.44527 82.894 9.44491 82.8954 9.44465 82.8964C9.44452 82.8969 9.44441 82.8974 9.44435 82.8976C9.44426 82.898 9.4442 82.8982 10.4497 83.1025C11.4552 83.3069 11.4552 83.3069 11.4552 83.3068C11.4552 83.3066 11.4553 83.3064 11.4554 83.306C11.4556 83.3053 11.4558 83.3042 11.4562 83.3026C11.457 83.2995 11.4582 83.2947 11.4599 83.2882C11.4632 83.2751 11.4682 83.2553 11.4749 83.229C11.4884 83.1762 11.5087 83.0971 11.5357 82.993C11.5898 82.7847 11.6709 82.4763 11.7785 82.0783C11.9935 81.2822 12.314 80.1277 12.7349 78.6985C13.5767 75.8394 14.819 71.8846 16.42 67.5029C19.634 58.7067 24.2511 48.3116 29.9107 41.5642L28.294 40.3886Z" fill="#673F1B"/>
</g>
<path d="M13.9427 84.2438C14.243 84.6923 14.8796 84.8217 15.3646 84.5328L23.2679 79.8248C23.7528 79.5359 23.9025 78.9381 23.6022 78.4896C23.3018 78.0411 22.6652 77.9117 22.1802 78.2006L15.1551 82.3855L10.8044 75.8889C10.5041 75.4404 9.86741 75.311 9.38243 75.5999C8.89745 75.8888 8.74778 76.4866 9.04813 76.9351L13.9427 84.2438ZM33.4735 41.5946L34.2818 42.1824L33.4735 41.5946ZM71.6367 14.9492C71.1688 14.0959 71.1686 14.096 71.1683 14.0962C71.1681 14.0963 71.1677 14.0965 71.1672 14.0968C71.1662 14.0972 71.1648 14.0979 71.163 14.0988C71.1595 14.1005 71.1543 14.1031 71.1475 14.1065C71.1339 14.1132 71.1139 14.1231 71.0876 14.1361C71.0351 14.1622 70.9576 14.2008 70.8564 14.2515C70.6539 14.353 70.3565 14.5031 69.9747 14.6986C69.2112 15.0896 68.1096 15.6622 66.7532 16.391C64.041 17.8484 60.307 19.9318 56.2184 22.4373C48.0714 27.4297 38.4041 34.1647 32.6651 41.0068L34.2818 42.1824C39.7925 35.6126 49.2068 29.0249 57.329 24.0476C61.375 21.5682 65.0725 19.5051 67.7582 18.062C69.1007 17.3406 70.1896 16.7746 70.9419 16.3895C71.3179 16.1969 71.6098 16.0496 71.8071 15.9507C71.9057 15.9012 71.9807 15.8639 72.0307 15.8391C72.0557 15.8267 72.0745 15.8174 72.0868 15.8113C72.093 15.8082 72.0976 15.8059 72.1006 15.8045C72.1021 15.8038 72.1031 15.8032 72.1038 15.8029C72.1041 15.8027 72.1043 15.8026 72.1045 15.8025C72.1046 15.8025 72.1046 15.8025 71.6367 14.9492ZM32.6651 41.0068C26.7705 48.0344 22.0613 58.7025 18.8375 67.5256C17.2196 71.9535 15.9651 75.9474 15.115 78.8346C14.6898 80.2785 14.3655 81.4466 14.1472 82.2547C14.038 82.6588 13.9554 82.973 13.8999 83.1867C13.8721 83.2936 13.8511 83.3754 13.837 83.4308C13.8299 83.4584 13.8246 83.4795 13.821 83.4939C13.8192 83.501 13.8178 83.5065 13.8168 83.5102C13.8164 83.5121 13.816 83.5136 13.8157 83.5146C13.8156 83.5151 13.8155 83.5155 13.8154 83.5158C13.8154 83.5161 13.8153 83.5164 14.8208 83.7207C15.8263 83.925 15.8263 83.925 15.8263 83.9249C15.8263 83.9248 15.8264 83.9246 15.8265 83.9242C15.8267 83.9235 15.8269 83.9224 15.8273 83.9208C15.8281 83.9177 15.8293 83.9128 15.831 83.9063C15.8343 83.8933 15.8393 83.8735 15.846 83.8471C15.8595 83.7944 15.8798 83.7153 15.9068 83.6112C15.9609 83.4029 16.042 83.0945 16.1495 82.6965C16.3646 81.9003 16.6851 80.7458 17.1059 79.3166C17.9478 76.4575 19.1901 72.5028 20.7911 68.121C24.0051 59.3248 28.6222 48.9298 34.2818 42.1824L32.6651 41.0068Z" fill="white"/>
<defs>
<filter id="filter0_f_7_1726" x="0.521484" y="9.47754" width="71.2129" height="78.5908" filterUnits="userSpaceOnUse" color-interpolation-filters="sRGB">
<feFlood flood-opacity="0" result="BackgroundImageFix"/>
<feBlend mode="normal" in="SourceGraphic" in2="BackgroundImageFix" result="shape"/>
<feGaussianBlur stdDeviation="2" result="effect1_foregroundBlur_7_1726"/>
</filter>
</defs>
</svg>
