<svg width="63" height="87" viewBox="0 0 63 87" fill="none" xmlns="http://www.w3.org/2000/svg">
<g opacity="0.3" filter="url(#filter0_f_7_1723)">
<path d="M51.5361 81.7302C51.1636 82.1136 50.5027 82.1341 50.06 81.776L42.8456 75.9405C42.4029 75.5824 42.346 74.9812 42.7185 74.5978C43.0911 74.2144 43.752 74.1938 44.1947 74.5519L50.6075 79.7391L56.0039 74.185C56.3764 73.8016 57.0373 73.781 57.48 74.1391C57.9227 74.4972 57.9796 75.0984 57.6071 75.4818L51.5361 81.7302ZM38.5545 39.9314L39.4362 39.4603L38.5545 39.9314ZM5.2945 11.2525C5.86108 10.4811 5.86128 10.4812 5.86157 10.4814C5.86179 10.4815 5.86217 10.4818 5.86261 10.482C5.86348 10.4826 5.86472 10.4834 5.86631 10.4844C5.86951 10.4864 5.87414 10.4893 5.8802 10.4931C5.89232 10.5008 5.91013 10.5121 5.9335 10.5269C5.98022 10.5565 6.04914 10.6004 6.13908 10.6579C6.31896 10.773 6.58294 10.9429 6.92163 11.1636C7.59897 11.6049 8.57534 12.2496 9.77553 13.0656C12.1753 14.697 15.473 17.0151 19.0658 19.7628C26.2242 25.2372 34.6573 32.4935 39.4362 39.4603L37.6728 40.4024C33.093 33.7259 24.8961 26.6428 17.7642 21.1886C14.2119 18.472 10.9493 16.1785 8.57511 14.5644C7.38831 13.7576 6.42428 13.1211 5.75796 12.6869C5.42482 12.4698 5.16616 12.3033 4.99135 12.1915C4.90394 12.1356 4.83751 12.0933 4.79322 12.0652C4.77107 12.0512 4.75446 12.0407 4.74353 12.0338C4.73806 12.0303 4.73402 12.0278 4.73141 12.0261C4.73011 12.0253 4.72917 12.0247 4.72859 12.0244C4.7283 12.0242 4.72813 12.0241 4.72799 12.024C4.72791 12.0239 4.72793 12.024 5.2945 11.2525ZM39.4362 39.4603C44.3565 46.6333 47.4302 57.0752 49.2768 65.6257C50.2042 69.9195 50.829 73.7713 51.2222 76.5499C51.4188 77.9396 51.5576 79.0618 51.6473 79.8378C51.6922 80.2258 51.7248 80.5274 51.7463 80.7325C51.757 80.8351 51.765 80.9137 51.7703 80.9669C51.7729 80.9935 51.7749 81.0137 51.7762 81.0275C51.7769 81.0344 51.7774 81.0397 51.7778 81.0434C51.7779 81.0452 51.7781 81.0466 51.7782 81.0476C51.7782 81.0481 51.7783 81.0485 51.7783 81.0488C51.7783 81.0491 51.7783 81.0493 50.7345 81.0818C49.6907 81.1142 49.6907 81.1142 49.6907 81.1142C49.6907 81.114 49.6907 81.1138 49.6907 81.1135C49.6906 81.1128 49.6905 81.1118 49.6904 81.1103C49.6901 81.1073 49.6896 81.1028 49.689 81.0966C49.6878 81.0842 49.686 81.0653 49.6835 81.0401C49.6785 80.9898 49.6708 80.9142 49.6604 80.8146C49.6396 80.6154 49.6076 80.3203 49.5635 79.9389C49.4753 79.176 49.3384 78.0686 49.1441 76.6952C48.7553 73.9476 48.1374 70.1392 47.2213 65.8971C45.3809 57.3755 42.3646 47.2423 37.6728 40.4024L39.4362 39.4603Z" fill="#673F1B"/>
</g>
<path d="M49.7747 80.4789C49.4125 80.8705 48.7531 80.9049 48.3019 80.5557L40.9492 74.866C40.498 74.5169 40.4259 73.9164 40.7881 73.5248C41.1503 73.1332 41.8097 73.0988 42.2609 73.4479L48.7966 78.5054L54.0435 72.833C54.4057 72.4414 55.0651 72.407 55.5163 72.7561C55.9675 73.1053 56.0396 73.7058 55.6774 74.0974L49.7747 80.4789ZM36.208 39.7135L37.0897 39.2424L36.208 39.7135ZM1.47656 10.1582C2.0418 9.38593 2.042 9.38605 2.04229 9.38624C2.04252 9.38638 2.04292 9.38663 2.04337 9.38691C2.04428 9.38748 2.04558 9.3883 2.04725 9.38935C2.05061 9.39146 2.0555 9.39453 2.06189 9.39856C2.07469 9.40662 2.09353 9.41849 2.11825 9.43412C2.16769 9.46537 2.24068 9.51162 2.33595 9.57233C2.52647 9.69373 2.80613 9.87295 3.1648 10.1055C3.88211 10.5707 4.91569 11.2494 6.18456 12.1062C8.72169 13.8194 12.2028 16.2465 15.979 19.1031C23.5004 24.7929 32.3075 32.2707 37.0897 39.2424L35.3263 40.1846C30.7499 33.5129 22.1913 26.2131 14.6866 20.536C10.9498 17.7093 7.50276 15.3057 4.99002 13.609C3.73397 12.7609 2.71218 12.0899 2.00535 11.6316C1.65196 11.4024 1.37736 11.2265 1.19165 11.1081C1.09879 11.049 1.02816 11.0042 0.981019 10.9744C0.957448 10.9595 0.93975 10.9484 0.928082 10.941C0.922248 10.9373 0.917922 10.9346 0.915123 10.9329C0.913723 10.932 0.912706 10.9313 0.912072 10.9309C0.911756 10.9307 0.91157 10.9306 0.911411 10.9305C0.911321 10.9305 0.911328 10.9305 1.47656 10.1582ZM37.0897 39.2424C42.0024 46.4043 45.2206 56.5802 47.2107 64.8793C48.2097 69.0453 48.9062 72.7694 49.3531 75.4524C49.5766 76.7942 49.7378 77.8766 49.8433 78.6247C49.896 78.9988 49.9348 79.2893 49.9605 79.487C49.9734 79.5859 49.983 79.6615 49.9894 79.7128C49.9926 79.7384 49.995 79.758 49.9966 79.7713C49.9974 79.7779 49.9981 79.783 49.9985 79.7865C49.9987 79.7883 49.9989 79.7897 49.999 79.7906C49.999 79.7911 49.9991 79.7915 49.9991 79.7918C49.9992 79.7921 49.9992 79.7923 48.9577 79.8467C47.9163 79.901 47.9163 79.9011 47.9163 79.901C47.9163 79.9008 47.9163 79.9007 47.9162 79.9004C47.9161 79.8997 47.916 79.8987 47.9159 79.8973C47.9155 79.8945 47.915 79.8901 47.9142 79.8841C47.9128 79.8722 47.9106 79.8541 47.9075 79.8298C47.9015 79.7814 47.8923 79.7087 47.8798 79.6128C47.8549 79.421 47.8169 79.1367 47.765 78.7692C47.6614 78.0341 47.5024 76.9663 47.2816 75.6405C46.8398 72.988 46.1511 69.3062 45.1642 65.1904C43.1824 56.9262 40.0257 47.0355 35.3263 40.1846L37.0897 39.2424Z" fill="white"/>
<defs>
<filter id="filter0_f_7_1723" x="0.728516" y="6.48145" width="61.125" height="79.5498" filterUnits="userSpaceOnUse" color-interpolation-filters="sRGB">
<feFlood flood-opacity="0" result="BackgroundImageFix"/>
<feBlend mode="normal" in="SourceGraphic" in2="BackgroundImageFix" result="shape"/>
<feGaussianBlur stdDeviation="2" result="effect1_foregroundBlur_7_1723"/>
</filter>
</defs>
</svg>
