<svg width="63" height="63" viewBox="0 0 63 63" fill="none" xmlns="http://www.w3.org/2000/svg">
<path d="M40.2055 44.6841C40.0103 44.6842 39.8182 44.6366 39.6456 44.5455L31.501 40.2629L23.3559 44.5455C23.1572 44.65 22.9333 44.6967 22.7094 44.6806C22.4855 44.6644 22.2706 44.586 22.089 44.4541C21.9074 44.3222 21.7662 44.1421 21.6816 43.9343C21.5969 43.7264 21.5721 43.499 21.6099 43.2777L23.1655 34.2073L16.576 27.7839C16.4153 27.6273 16.3017 27.4288 16.2479 27.2109C16.1941 26.993 16.2024 26.7644 16.2718 26.551C16.3412 26.3376 16.4689 26.1478 16.6404 26.0032C16.812 25.8585 17.0206 25.7648 17.2427 25.7325L26.3496 24.4084L30.4219 16.1569C30.8284 15.3344 32.1737 15.3344 32.5802 16.1569L36.6525 24.4084L45.7588 25.7325C45.9809 25.7648 46.1895 25.8585 46.3611 26.0032C46.5327 26.1478 46.6604 26.3376 46.7297 26.551C46.7991 26.7644 46.8074 26.993 46.7536 27.2109C46.6999 27.4288 46.5862 27.6273 46.4256 27.7839L39.836 34.2073L41.3916 43.2777C41.421 43.4504 41.4124 43.6274 41.3664 43.7964C41.3204 43.9654 41.238 44.1224 41.1251 44.2563C41.0121 44.3902 40.8713 44.4978 40.7125 44.5717C40.5537 44.6456 40.3806 44.684 40.2055 44.6841ZM20.0014 27.7628L25.2986 32.9266C25.4381 33.0628 25.5424 33.2308 25.6027 33.4163C25.663 33.6017 25.6774 33.7989 25.6446 33.9911L24.3939 41.2815L30.9412 37.839C31.1136 37.7476 31.3058 37.6998 31.501 37.6998C31.6962 37.6998 31.8884 37.7476 32.0609 37.839L38.6076 41.2815L37.3574 33.9911C37.3247 33.7989 37.3391 33.6017 37.3993 33.4163C37.4596 33.2308 37.564 33.0628 37.7035 32.9266L43 27.7628L35.6802 26.6983C35.4872 26.6703 35.3039 26.5958 35.1461 26.4812C34.9883 26.3666 34.8607 26.2153 34.7744 26.0404L31.501 19.4079L28.2277 26.0405C28.1413 26.2154 28.0138 26.3666 27.8559 26.4813C27.6981 26.5959 27.5148 26.6704 27.3218 26.6984L20.0014 27.7628Z" fill="white"/>
<path d="M31.5013 53.2769C19.4935 53.2769 9.72461 43.5074 9.72461 31.4996C9.72461 19.4919 19.4935 9.72363 31.5013 9.72363C43.509 9.72363 53.278 19.492 53.278 31.4997C53.278 43.5075 43.509 53.2769 31.5013 53.2769ZM31.5013 12.1298C27.6702 12.1298 23.9251 13.2659 20.7396 15.3944C17.5541 17.5228 15.0714 20.5481 13.6053 24.0876C12.1392 27.6272 11.7556 31.5219 12.5031 35.2794C13.2506 39.037 15.0955 42.4884 17.8045 45.1974C20.5136 47.9064 23.9651 49.7512 27.7227 50.4985C31.4802 51.2459 35.375 50.8622 38.9145 49.396C42.4539 47.9298 45.4791 45.447 47.6075 42.2614C49.7359 39.0759 50.8718 35.3308 50.8717 31.4996C50.8657 26.3642 48.8229 21.4408 45.1916 17.8096C41.5602 14.1783 36.6367 12.1357 31.5013 12.1298Z" fill="white"/>
<path d="M37.4987 62.1119C36.7507 62.1114 36.0154 61.9179 35.3639 61.5503L32.4518 59.9137C32.1613 59.7507 31.8338 59.6652 31.5007 59.6652C31.1676 59.6652 30.8401 59.7507 30.5496 59.9137L27.6358 61.5503C26.6958 62.0813 25.5916 62.2426 24.5389 62.0028C23.4863 61.7629 22.561 61.139 21.9439 60.2532L20.0264 57.5133C19.8333 57.2433 19.5753 57.0262 19.2762 56.8823C18.9771 56.7383 18.6466 56.6721 18.3151 56.6897L14.976 56.8953C13.8991 56.9668 12.8343 56.6332 11.9908 55.96C11.1472 55.2867 10.5858 54.3225 10.4167 53.2565L9.87796 49.9573C9.8254 49.6279 9.68834 49.3177 9.48016 49.057C9.27198 48.7963 8.99977 48.594 8.69011 48.4699L5.5977 47.215C4.59585 46.8116 3.78068 46.0487 3.31181 45.0758C2.84293 44.1028 2.75413 42.9899 3.06279 41.9549L4.00803 38.7497C4.10092 38.4309 4.11093 38.0936 4.03712 37.7698C3.96331 37.446 3.80812 37.1463 3.58623 36.8992L1.34153 34.4154C0.616626 33.6174 0.214952 32.578 0.214844 31.4999C0.214735 30.4218 0.616201 29.3824 1.34094 28.5842L3.58682 26.0992C3.80854 25.8518 3.96361 25.552 4.03741 25.228C4.1112 24.904 4.1013 24.5666 4.00862 24.2476L3.06279 21.0424C2.7544 20.0074 2.84332 18.8945 3.31216 17.9217C3.781 16.9488 4.59601 16.1859 5.5977 15.7822L8.69304 14.5262C9.00083 14.4001 9.27133 14.1976 9.4789 13.9377C9.68647 13.6778 9.82424 13.3692 9.87915 13.0411L10.4184 9.74075C10.5872 8.67456 11.1487 7.71005 11.9924 7.03674C12.8362 6.36343 13.9012 6.03001 14.9783 6.10199L18.3174 6.30878C18.6493 6.33001 18.9811 6.26526 19.2807 6.12077C19.5803 5.97629 19.8375 5.75696 20.0275 5.48399L21.9445 2.74641C22.5613 1.85983 23.487 1.23552 24.5401 0.9958C25.5932 0.75608 26.6978 0.918231 27.6376 1.45048L30.5491 3.08598C30.8403 3.24779 31.1679 3.33271 31.5011 3.33271C31.8342 3.33271 32.1618 3.24779 32.453 3.08598L35.3651 1.44929C36.3049 0.918172 37.4091 0.756655 38.4617 0.996315C39.5143 1.23598 40.4397 1.85958 41.057 2.74524L42.9751 5.48521C43.1661 5.75698 43.4234 5.97535 43.7227 6.11952C44.0219 6.26369 44.3531 6.32886 44.6846 6.30882L48.025 6.10322C49.1008 6.03678 50.1629 6.37227 51.0053 7.04461C51.8478 7.71696 52.4105 8.67823 52.5843 9.74197L53.1235 13.0423C53.1783 13.3706 53.316 13.6793 53.5236 13.9394C53.7312 14.1995 54.0017 14.4023 54.3096 14.5286L57.4031 15.7834C58.4052 16.1869 59.2207 16.9499 59.6897 17.9231C60.1586 18.8963 60.2474 20.0095 59.9386 21.0448L58.9934 24.2488C58.9004 24.5676 58.8903 24.9049 58.964 25.2287C59.0377 25.5525 59.1928 25.8521 59.4146 26.0993L61.6593 28.5831C62.384 29.3811 62.7856 30.4205 62.7857 31.4986C62.7858 32.5766 62.3845 33.616 61.6599 34.4143L59.4152 36.8992C59.1932 37.1464 59.0378 37.4463 58.9639 37.7703C58.89 38.0943 58.9 38.4318 58.9928 38.7509L59.9381 41.9561C60.2469 42.9911 60.1581 44.1041 59.6893 45.077C59.2204 46.05 58.4051 46.8129 57.4032 47.2162L54.3084 48.4722C54.0004 48.5984 53.7297 48.8011 53.522 49.0612C53.3144 49.3213 53.1766 49.6302 53.1217 49.9585L52.583 53.2577C52.4104 54.3222 51.8478 55.2844 51.0049 55.957C50.1619 56.6296 49.0988 56.9644 48.0226 56.8964L44.6846 56.6908C44.3525 56.67 44.0206 56.7349 43.7208 56.8793C43.421 57.0238 43.1634 57.2429 42.9727 57.5156L41.057 60.252C40.6578 60.8259 40.1257 61.2948 39.5061 61.6186C38.8865 61.9425 38.1978 62.1117 37.4987 62.1119ZM31.5007 57.2618C32.2466 57.2608 32.9803 57.4514 33.6315 57.8153L36.5429 59.4519C36.9626 59.69 37.4561 59.7626 37.9265 59.6554C38.397 59.5483 38.8104 59.2691 39.0855 58.8727L41.0018 56.1351C41.4316 55.5278 42.0087 55.0398 42.6789 54.7169C43.3491 54.3941 44.0905 54.2469 44.8332 54.2893L48.1712 54.4949C48.6523 54.5273 49.1282 54.3786 49.5052 54.0779C49.8823 53.7772 50.1331 53.3463 50.2085 52.87L50.7472 49.5708C50.8698 48.8356 51.1782 48.144 51.6431 47.5614C52.108 46.9789 52.714 46.5248 53.4037 46.2422L56.4979 44.9862C56.9453 44.8062 57.3095 44.4656 57.519 44.0312C57.7285 43.5967 57.7682 43.0998 57.6305 42.6375L56.6853 39.4323C56.4772 38.7179 56.4547 37.9622 56.62 37.2367C56.7853 36.5112 57.1329 35.8398 57.6299 35.2861L59.874 32.8022L59.8746 32.801C60.1982 32.4443 60.3774 31.98 60.3773 31.4985C60.3771 31.017 60.1977 30.5527 59.874 30.1962L57.6299 27.7136C57.1329 27.1598 56.7854 26.4884 56.6202 25.7629C56.455 25.0374 56.4776 24.2817 56.6859 23.5673L57.6311 20.3633C57.769 19.9008 57.7292 19.4036 57.5196 18.9689C57.31 18.5342 56.9456 18.1935 56.4979 18.0135L53.4049 16.7586C52.7153 16.4761 52.1093 16.022 51.6444 15.4394C51.1796 14.8569 50.8714 14.1652 50.749 13.4301L50.2097 10.1297C50.1301 9.65558 49.8783 9.22755 49.5025 8.92768C49.1267 8.62781 48.6535 8.47721 48.1735 8.50476L44.8332 8.71038C44.0906 8.75559 43.3487 8.60979 42.6784 8.28688C42.0081 7.96397 41.4317 7.47472 41.0041 6.86579L39.086 4.12578C38.8101 3.73056 38.3969 3.45227 37.9269 3.34518C37.457 3.2381 36.964 3.30989 36.5441 3.54655L33.6309 5.18442C32.9796 5.54732 32.2465 5.73781 31.501 5.73781C30.7555 5.73781 30.0224 5.54732 29.3712 5.18442L26.4585 3.54772C26.0387 3.31003 25.5452 3.23767 25.0748 3.34481C24.6044 3.45196 24.1909 3.73089 23.9154 4.12695L21.9991 6.86336C21.5723 7.47338 20.996 7.96359 20.3255 8.287C19.6549 8.61041 18.9125 8.75618 18.1694 8.71035L14.8291 8.50356C14.3492 8.47632 13.8761 8.62704 13.5005 8.92685C13.1248 9.22667 12.8729 9.65452 12.793 10.1285L12.2537 13.4289C12.1311 14.1638 11.8227 14.8552 11.3579 15.4375C10.8931 16.0199 10.2872 16.4738 9.59776 16.7562L6.503 18.0122C6.05557 18.1927 5.69153 18.5335 5.48207 18.9681C5.2726 19.4026 5.23277 19.8997 5.37037 20.3621L6.31618 23.5661C6.52413 24.2805 6.54657 25.0361 6.38139 25.7616C6.21621 26.487 5.86886 27.1584 5.37213 27.7124L3.12625 30.1974C2.80274 30.5538 2.62353 31.0179 2.62353 31.4992C2.62353 31.9805 2.80274 32.4446 3.12625 32.801L5.37094 35.2848C5.86799 35.8386 6.21559 36.51 6.38088 37.2355C6.54617 37.961 6.5237 38.7167 6.31558 39.4311L5.37036 42.6364C5.23263 43.0986 5.27241 43.5956 5.48191 44.03C5.69141 44.4644 6.05553 44.805 6.50298 44.985L9.59593 46.2399C10.2855 46.5229 10.8914 46.9773 11.3563 47.56C11.8212 48.1427 12.1297 48.8344 12.2524 49.5696L12.7911 52.8688C12.8693 53.3436 13.1207 53.7725 13.4968 54.0727C13.8729 54.3728 14.347 54.5229 14.8273 54.4937L18.1676 54.2881C18.9106 54.2408 19.6533 54.3856 20.3241 54.7087C20.9949 55.0318 21.5711 55.5223 21.9973 56.1327L23.9148 58.8727C24.19 59.269 24.6033 59.5481 25.0737 59.6552C25.5441 59.7624 26.0376 59.6899 26.4573 59.4519L29.3705 57.8152C30.0215 57.4513 30.755 57.2607 31.5007 57.2618Z" fill="white"/>
</svg>
